<svg width="16" height="16" viewBox="0 0 16 16" fill="none" xmlns="http://www.w3.org/2000/svg">
<circle cx="8" cy="8" r="7.2" fill="#3F82EF" stroke="#3F82EF" stroke-width="1.6"/>
<path d="M8.5 9.5H7C7 8 7.8 7.5 8.35 7.2C8.55 7.1 8.7 7 8.8 6.9C9.05 6.65 8.95 6.3 8.9 6.2C8.75 5.85 8.4 5.5 7.75 5.5C6.7 5.5 6.5 6.45 6.5 6.65L5 6.45C5.1 5.6 5.85 4 7.75 4C8.9 4 9.9 4.65 10.3 5.6C10.65 6.45 10.5 7.35 9.9 7.95C9.65 8.2 9.35 8.35 9.1 8.5C8.65 8.75 8.5 9 8.5 9.5Z" fill="white"/>
<path d="M8.75 11C8.75 11.5525 8.3025 12 7.75 12C7.1975 12 6.75 11.5525 6.75 11C6.75 10.4475 7.1975 10 7.75 10C8.3025 10 8.75 10.4475 8.75 11Z" fill="white"/>
</svg>
